HIERARCHY
ROOT mixamorig:Hips
{
	OFFSET 0.000000 201.639420 0.000000
	CHANNELS 6 Xposition Yposition Zposition Xrotation Yrotation Zrotation
	JOINT mixamorig:Spine
	{
		OFFSET 0.006200 19.524994 -2.481800
		CHANNELS 3 Xrotation Yrotation Zrotation
		JOINT mixamorig:Spine1
		{
			OFFSET -0.000900 22.835007 -2.825400
			CHANNELS 3 Xrotation Yrotation Zrotation
			JOINT mixamorig:Spine2
			{
				OFFSET -0.020600 26.552490 -3.193300
				CHANNELS 3 Xrotation Yrotation Zrotation
				JOINT mixamorig:Neck
				{
					OFFSET -0.060000 30.701813 1.352200
					CHANNELS 3 Xrotation Yrotation Zrotation
					JOINT mixamorig:Head
					{
						OFFSET -0.087200 22.547607 3.670900
						CHANNELS 3 Xrotation Yrotation Zrotation
						JOINT mixamorig:HeadTop_End
						{
							OFFSET -0.830600 40.355194 7.893500
							CHANNELS 3 Xrotation Yrotation Zrotation
							End Site
							{
								OFFSET 0.000000 30.592346 0.000000
							}
						}
						JOINT mixamorig:RightEye
						{
							OFFSET -6.302100 18.118591 16.197100
							CHANNELS 3 Xrotation Yrotation Zrotation
							End Site
							{
								OFFSET 0.000000 30.592346 0.000000
							}
						}
						JOINT mixamorig:LeftEye
						{
							OFFSET 6.741500 18.382690 16.401899
							CHANNELS 3 Xrotation Yrotation Zrotation
							End Site
							{
								OFFSET 0.000000 30.592346 0.000000
							}
						}
					}
				}
				JOINT mixamorig:LeftShoulder
				{
					OFFSET 11.924900 18.230499 1.425400
					CHANNELS 3 Xrotation Yrotation Zrotation
					JOINT mixamorig:LeftArm
					{
						OFFSET 25.435989 -0.697632 -5.229300
						CHANNELS 3 Xrotation Yrotation Zrotation
						JOINT mixamorig:LeftForeArm
						{
							OFFSET 54.684776 0.000000 0.000000
							CHANNELS 3 Xrotation Yrotation Zrotation
							JOINT mixamorig:LeftHand
							{
								OFFSET 55.098175 0.000000 0.000000
								CHANNELS 3 Xrotation Yrotation Zrotation
								JOINT mixamorig:LeftHandMiddle1
								{
									OFFSET 23.369751 0.000000 0.000000
									CHANNELS 3 Xrotation Yrotation Zrotation
									JOINT mixamorig:LeftHandMiddle2
									{
										OFFSET 6.378677 0.000000 0.000000
										CHANNELS 3 Xrotation Yrotation Zrotation
										JOINT mixamorig:LeftHandMiddle3
										{
											OFFSET 6.148331 0.000000 0.000000
											CHANNELS 3 Xrotation Yrotation Zrotation
											JOINT mixamorig:LeftHandMiddle4
											{
												OFFSET 6.582504 0.000000 0.000000
												CHANNELS 3 Xrotation Yrotation Zrotation
												End Site
												{
													OFFSET -1.168900 6.395691 1.028606
												}
											}
										}
									}
								}
								JOINT mixamorig:LeftHandThumb1
								{
									OFFSET 7.235672 -3.848206 5.434273
									CHANNELS 3 Xrotation Yrotation Zrotation
									JOINT mixamorig:LeftHandThumb2
									{
										OFFSET 6.568451 -3.792297 3.792300
										CHANNELS 3 Xrotation Yrotation Zrotation
										JOINT mixamorig:LeftHandThumb3
										{
											OFFSET 6.063080 -3.500519 3.500518
											CHANNELS 3 Xrotation Yrotation Zrotation
											JOINT mixamorig:LeftHandThumb4
											{
												OFFSET 4.793182 -2.767334 2.767349
												CHANNELS 3 Xrotation Yrotation Zrotation
												End Site
												{
													OFFSET 0.101639 6.054260 1.275483
												}
											}
										}
									}
								}
								JOINT mixamorig:LeftHandIndex1
								{
									OFFSET 23.101074 -0.309540 4.992809
									CHANNELS 3 Xrotation Yrotation Zrotation
									JOINT mixamorig:LeftHandIndex2
									{
										OFFSET 6.226883 0.000000 0.000000
										CHANNELS 3 Xrotation Yrotation Zrotation
										JOINT mixamorig:LeftHandIndex3
										{
											OFFSET 6.094330 0.000000 0.000000
											CHANNELS 3 Xrotation Yrotation Zrotation
											JOINT mixamorig:LeftHandIndex4
											{
												OFFSET 5.482605 0.000000 0.000000
												CHANNELS 3 Xrotation Yrotation Zrotation
												End Site
												{
													OFFSET -1.427902 5.233032 0.797164
												}
											}
										}
									}
								}
								JOINT mixamorig:LeftHandRing1
								{
									OFFSET 22.299240 0.021149 -3.964172
									CHANNELS 3 Xrotation Yrotation Zrotation
									JOINT mixamorig:LeftHandRing2
									{
										OFFSET 6.321869 0.000000 0.000000
										CHANNELS 3 Xrotation Yrotation Zrotation
										JOINT mixamorig:LeftHandRing3
										{
											OFFSET 5.899796 0.000000 0.000000
											CHANNELS 3 Xrotation Yrotation Zrotation
											JOINT mixamorig:LeftHandRing4
											{
												OFFSET 6.517899 0.000000 0.000000
												CHANNELS 3 Xrotation Yrotation Zrotation
												End Site
												{
													OFFSET -1.637299 6.232208 0.980890
												}
											}
										}
									}
								}
								JOINT mixamorig:LeftHandPinky1
								{
									OFFSET 20.463791 -0.302338 -8.562233
									CHANNELS 3 Xrotation Yrotation Zrotation
									JOINT mixamorig:LeftHandPinky2
									{
										OFFSET 6.908646 0.000000 0.000000
										CHANNELS 3 Xrotation Yrotation Zrotation
										JOINT mixamorig:LeftHandPinky3
										{
											OFFSET 4.622849 0.000000 0.000000
											CHANNELS 3 Xrotation Yrotation Zrotation
											JOINT mixamorig:LeftHandPinky4
											{
												OFFSET 5.216080 0.000000 0.000000
												CHANNELS 3 Xrotation Yrotation Zrotation
												End Site
												{
													OFFSET -0.606308 5.116241 0.814926
												}
											}
										}
									}
								}
							}
						}
					}
				}
				JOINT mixamorig:RightShoulder
				{
					OFFSET -12.001300 18.284088 1.348900
					CHANNELS 3 Xrotation Yrotation Zrotation
					JOINT mixamorig:RightArm
					{
						OFFSET -25.308500 -0.751312 -5.164599
						CHANNELS 3 Xrotation Yrotation Zrotation
						JOINT mixamorig:RightForeArm
						{
							OFFSET -54.684429 0.000000 0.000000
							CHANNELS 3 Xrotation Yrotation Zrotation
							JOINT mixamorig:RightHand
							{
								OFFSET -55.150291 0.000000 0.000000
								CHANNELS 3 Xrotation Yrotation Zrotation
								JOINT mixamorig:RightHandMiddle1
								{
									OFFSET -23.317566 0.000000 0.000000
									CHANNELS 3 Xrotation Yrotation Zrotation
									JOINT mixamorig:RightHandMiddle2
									{
										OFFSET -6.378403 0.000000 0.000000
										CHANNELS 3 Xrotation Yrotation Zrotation
										JOINT mixamorig:RightHandMiddle3
										{
											OFFSET -6.148193 0.000000 0.000000
											CHANNELS 3 Xrotation Yrotation Zrotation
											JOINT mixamorig:RightHandMiddle4
											{
												OFFSET -6.583389 0.000000 0.000000
												CHANNELS 3 Xrotation Yrotation Zrotation
												End Site
												{
													OFFSET 1.171692 6.395905 1.029786
												}
											}
										}
									}
								}
								JOINT mixamorig:RightHandThumb1
								{
									OFFSET -7.190521 -3.860474 5.435846
									CHANNELS 3 Xrotation Yrotation Zrotation
									JOINT mixamorig:RightHandThumb2
									{
										OFFSET -6.567429 -3.791718 3.791708
										CHANNELS 3 Xrotation Yrotation Zrotation
										JOINT mixamorig:RightHandThumb3
										{
											OFFSET -6.062469 -3.500153 3.500166
											CHANNELS 3 Xrotation Yrotation Zrotation
											JOINT mixamorig:RightHandThumb4
											{
												OFFSET -4.792618 -2.767029 2.767022
												CHANNELS 3 Xrotation Yrotation Zrotation
												End Site
												{
													OFFSET -0.100327 6.053253 1.276754
												}
											}
										}
									}
								}
								JOINT mixamorig:RightHandIndex1
								{
									OFFSET -23.048981 -0.310791 4.992554
									CHANNELS 3 Xrotation Yrotation Zrotation
									JOINT mixamorig:RightHandIndex2
									{
										OFFSET -6.227539 0.000000 0.000000
										CHANNELS 3 Xrotation Yrotation Zrotation
										JOINT mixamorig:RightHandIndex3
										{
											OFFSET -6.095047 0.000000 0.000000
											CHANNELS 3 Xrotation Yrotation Zrotation
											JOINT mixamorig:RightHandIndex4
											{
												OFFSET -5.484772 0.000000 0.000000
												CHANNELS 3 Xrotation Yrotation Zrotation
												End Site
												{
													OFFSET 1.420593 5.237305 0.797056
												}
											}
										}
									}
								}
								JOINT mixamorig:RightHandRing1
								{
									OFFSET -22.246323 0.020569 -3.963762
									CHANNELS 3 Xrotation Yrotation Zrotation
									JOINT mixamorig:RightHandRing2
									{
										OFFSET -6.322128 0.000000 0.000000
										CHANNELS 3 Xrotation Yrotation Zrotation
										JOINT mixamorig:RightHandRing3
										{
											OFFSET -5.900024 0.000000 0.000000
											CHANNELS 3 Xrotation Yrotation Zrotation
											JOINT mixamorig:RightHandRing4
											{
												OFFSET -6.518356 0.000000 0.000000
												CHANNELS 3 Xrotation Yrotation Zrotation
												End Site
												{
													OFFSET 1.636398 6.232697 0.982186
												}
											}
										}
									}
								}
								JOINT mixamorig:RightHandPinky1
								{
									OFFSET -20.411011 -0.303314 -8.561701
									CHANNELS 3 Xrotation Yrotation Zrotation
									JOINT mixamorig:RightHandPinky2
									{
										OFFSET -6.907349 0.000000 0.000000
										CHANNELS 3 Xrotation Yrotation Zrotation
										JOINT mixamorig:RightHandPinky3
										{
											OFFSET -4.623840 0.000000 0.000000
											CHANNELS 3 Xrotation Yrotation Zrotation
											JOINT mixamorig:RightHandPinky4
											{
												OFFSET -5.218353 0.000000 0.000000
												CHANNELS 3 Xrotation Yrotation Zrotation
												End Site
												{
													OFFSET 0.602097 5.118835 0.816273
												}
											}
										}
									}
								}
							}
						}
					}
				}
			}
		}
	}
	JOINT mixamorig:LeftUpLeg
	{
		OFFSET 18.168400 -13.561905 -0.039000
		CHANNELS 3 Xrotation Yrotation Zrotation
		JOINT mixamorig:LeftLeg
		{
			OFFSET 0.577358 -80.825211 -3.695000
			CHANNELS 3 Xrotation Yrotation Zrotation
			JOINT mixamorig:LeftFoot
			{
				OFFSET -0.577356 -83.370262 -6.520700
				CHANNELS 3 Xrotation Yrotation Zrotation
				JOINT mixamorig:LeftToeBase
				{
					OFFSET 0.750401 -20.798306 25.135401
					CHANNELS 3 Xrotation Yrotation Zrotation
					JOINT mixamorig:LeftToe_End
					{
						OFFSET -0.000500 0.001200 19.917799
						CHANNELS 3 Xrotation Yrotation Zrotation
						End Site
						{
							OFFSET 0.000000 19.917805 0.000000
						}
					}
				}
			}
		}
	}
	JOINT mixamorig:RightUpLeg
	{
		OFFSET -18.162500 -13.585098 -0.041000
		CHANNELS 3 Xrotation Yrotation Zrotation
		JOINT mixamorig:RightLeg
		{
			OFFSET -0.595024 -80.945297 -3.631900
			CHANNELS 3 Xrotation Yrotation Zrotation
			JOINT mixamorig:RightFoot
			{
				OFFSET 0.595024 -83.218193 -6.561200
				CHANNELS 3 Xrotation Yrotation Zrotation
				JOINT mixamorig:RightToeBase
				{
					OFFSET -0.753601 -20.807106 25.115000
					CHANNELS 3 Xrotation Yrotation Zrotation
					JOINT mixamorig:RightToe_End
					{
						OFFSET 0.000299 0.001700 19.918200
						CHANNELS 3 Xrotation Yrotation Zrotation
						End Site
						{
							OFFSET 0.000000 19.918203 0.000000
						}
					}
				}
			}
		}
	}
}
MOTION
Frames: 4
Frame Time: 0.033333
0.314929 113.712418 -6.775803 -19.806925 -0.016333 -1.624157 8.540418 2.324552 0.989395 17.074051 4.625629 1.428722 17.074049 4.625627 1.428722 16.974842 -2.815582 2.900668 1.795786 -14.946962 -0.215470 0.000001 0.000000 -0.000000 0.000001 0.000000 -0.000000 0.000001 0.000000 -0.000000 1.455153 0.775087 -15.847451 1.327716 -40.364492 -38.816416 -1.612150 -33.054216 -0.416476 6.434942 -12.403645 41.149219 -12.373936 15.012978 -61.237584 -1.436753 -2.870030 -46.000436 -0.000011 -0.000011 -0.000008 -0.000000 -0.000001 0.000002 -3.356623 -15.152592 19.058301 -11.458826 29.458982 -26.351659 0.000004 -0.000004 0.000014 0.000001 -0.000001 0.000001 -3.567114 3.842329 -60.590649 -10.164933 -4.550869 -53.684443 -0.000005 -0.000003 -0.000005 0.000002 -0.000004 -0.000003 -11.901681 28.970404 -62.563085 -1.688360 -4.215950 -49.240750 0.000003 -0.000001 -0.000001 -0.000001 0.000003 0.000002 -15.252139 30.084825 -69.930516 -0.435378 -5.276146 -20.890769 0.000007 0.000006 0.000008 -0.000001 -0.000001 -0.000000 -0.216053 21.397444 17.631860 -55.353004 22.863753 59.409757 -13.021833 12.796089 2.993235 -10.507926 6.640429 8.213686 -2.320010 10.552227 44.468968 -2.591630 2.915521 74.285247 0.000004 0.000003 0.000008 0.000002 0.000001 -0.000003 23.380817 13.538067 5.592174 2.321138 -6.714515 -2.170932 0.000003 0.000000 0.000009 -0.000002 -0.000000 -0.000004 2.187527 5.608958 37.424150 1.433799 -2.439442 69.793038 -0.000009 0.000006 -0.000005 -0.000002 0.000000 -0.000000 -3.428672 13.092796 55.668289 -2.589571 5.513050 54.530294 -0.000004 -0.000000 -0.000005 -0.000001 -0.000003 -0.000001 -3.360213 14.852905 54.810591 -1.148009 7.534074 27.882108 -0.000004 0.000001 0.000001 -0.000002 -0.000001 -0.000001 -79.853155 -1.111969 8.044146 107.157431 -1.385993 -3.036832 2.513627 -1.094348 0.966633 -18.911749 -0.169785 0.615287 -0.000000 0.000000 0.000000 -75.805654 0.613118 -14.195256 101.507956 1.634182 3.015571 -5.411619 3.405344 -1.314041 -1.755952 -0.184390 0.434226 -0.000000 -0.000000 -0.000000 
0.352481 113.710251 -6.775623 -19.781915 -0.011515 -1.614738 8.554529 2.306023 1.008867 17.101305 4.592611 1.471267 17.101305 4.592611 1.471267 16.977670 -2.821506 3.015832 1.721065 -15.004858 -0.166258 0.000002 0.000001 -0.000000 0.000002 0.000001 -0.000000 0.000002 0.000001 -0.000000 1.453215 0.778646 -15.841410 1.338095 -40.440003 -38.851164 -1.623231 -32.944120 -0.418124 6.303818 -12.515088 41.253397 -12.373938 15.012976 -61.237591 -1.436754 -2.870026 -46.000436 -0.000010 -0.000007 -0.000008 0.000002 -0.000002 0.000000 -3.367399 -15.147529 19.028892 -11.458819 29.458988 -26.351659 0.000007 -0.000003 0.000013 0.000004 0.000000 0.000001 -3.567114 3.842335 -60.590656 -10.164933 -4.550871 -53.684450 -0.000007 -0.000004 -0.000007 -0.000000 0.000001 0.000001 -11.901681 28.970404 -62.563085 -1.688358 -4.215952 -49.240750 -0.000002 -0.000001 -0.000001 -0.000001 -0.000001 0.000001 -15.252147 30.084832 -69.930523 -0.435373 -5.276153 -20.890772 0.000005 0.000002 0.000013 0.000002 0.000001 0.000002 -0.197575 21.300496 17.607565 -55.473953 22.787716 59.505052 -13.021738 12.874416 3.011931 -10.352639 6.384327 8.731713 -2.320010 10.552232 44.468971 -2.591627 2.915521 74.285240 0.000004 0.000010 0.000001 -0.000001 0.000001 0.000000 23.380817 13.538068 5.592170 2.321138 -6.714513 -2.170936 0.000002 0.000003 0.000002 0.000000 -0.000000 -0.000004 2.187528 5.608961 37.424147 1.433800 -2.439442 69.793031 -0.000009 0.000005 -0.000004 0.000003 0.000001 -0.000002 -3.428668 13.092797 55.668285 -2.589572 5.513053 54.530294 -0.000003 -0.000006 -0.000001 -0.000002 -0.000002 0.000001 -3.360208 14.852907 54.810595 -1.148008 7.534073 27.882111 -0.000003 0.000000 0.000001 -0.000001 0.000003 0.000001 -79.888980 -1.103114 8.014446 107.157253 -1.388858 -3.036987 2.532733 -1.072544 0.924417 -18.907422 -0.169835 0.615362 0.000000 0.000001 -0.000000 -75.837919 0.637799 -14.230128 101.505210 1.643164 3.016679 -5.397711 3.414357 -1.275530 -1.760374 -0.184423 0.434111 -0.000000 -0.000001 0.000000 
0.371366 113.708755 -6.772003 -19.756546 -0.023173 -1.594625 8.567858 2.287072 1.030430 17.126916 4.559218 1.518156 17.126918 4.559223 1.518156 16.997757 -2.834194 3.127091 1.701077 -15.111252 -0.077853 0.000001 0.000000 -0.000000 0.000001 0.000000 -0.000000 0.000001 0.000000 -0.000000 1.451027 0.768438 -15.846613 1.356085 -40.513451 -38.873690 -1.637318 -32.773737 -0.423409 6.146936 -12.668373 41.362482 -12.373937 15.012973 -61.237591 -1.436749 -2.870028 -46.000436 -0.000015 -0.000012 -0.000012 0.000001 0.000000 0.000002 -3.377470 -15.129554 18.987888 -11.458816 29.458988 -26.351657 0.000003 -0.000002 0.000010 0.000001 0.000001 -0.000001 -3.567117 3.842334 -60.590656 -10.164933 -4.550873 -53.684447 -0.000010 0.000001 -0.000006 -0.000004 -0.000001 0.000000 -11.901686 28.970401 -62.563085 -1.688359 -4.215948 -49.240750 0.000001 -0.000000 -0.000000 -0.000001 -0.000003 0.000001 -15.252142 30.084825 -69.930516 -0.435373 -5.276144 -20.890767 0.000010 0.000004 0.000012 -0.000004 -0.000002 0.000001 -0.179971 21.202044 17.588886 -55.561468 22.682809 59.590586 -13.023887 13.045543 3.051851 -10.264566 6.074780 9.216768 -2.320010 10.552232 44.468971 -2.591632 2.915522 74.285247 0.000005 0.000003 0.000004 0.000002 0.000003 0.000003 23.380815 13.538069 5.592171 2.321140 -6.714512 -2.170931 0.000004 0.000001 0.000006 -0.000002 0.000001 -0.000000 2.187527 5.608961 37.424147 1.433797 -2.439443 69.793031 -0.000010 0.000004 -0.000006 -0.000000 0.000000 -0.000003 -3.428670 13.092797 55.668285 -2.589571 5.513052 54.530291 -0.000003 -0.000002 -0.000001 -0.000001 -0.000000 -0.000001 -3.360212 14.852904 54.810598 -1.148008 7.534073 27.882108 -0.000003 0.000000 0.000002 -0.000001 -0.000001 -0.000000 -79.919354 -1.086304 8.004145 107.157178 -1.389940 -3.036882 2.546801 -1.052815 0.883970 -18.905718 -0.169905 0.615547 0.000000 -0.000000 0.000000 -75.874263 0.671955 -14.241387 101.506597 1.650370 3.017594 -5.385899 3.421747 -1.247586 -1.762347 -0.184443 0.434127 -0.000000 0.000000 -0.000000 
0.366850 113.709061 -6.763672 -19.737510 -0.054368 -1.565183 8.579339 2.271043 1.052213 17.148918 4.531796 1.565059 17.148911 4.531793 1.565059 17.037792 -2.849667 3.237766 1.715297 -15.240845 0.027996 0.000002 0.000000 0.000000 0.000002 0.000000 0.000000 0.000002 0.000000 0.000000 1.450434 0.740721 -15.846910 1.328079 -40.588993 -38.938143 -1.653529 -32.508972 -0.429679 5.994901 -12.875367 41.461328 -12.373939 15.012978 -61.237591 -1.436754 -2.870028 -46.000436 -0.000013 -0.000008 -0.000006 -0.000001 0.000001 0.000001 -3.386647 -15.109796 18.945722 -11.458814 29.458985 -26.351666 0.000008 -0.000001 0.000013 0.000000 -0.000000 -0.000001 -3.567114 3.842333 -60.590656 -10.164935 -4.550868 -53.684450 -0.000006 -0.000004 -0.000005 -0.000003 -0.000002 -0.000003 -11.901682 28.970404 -62.563085 -1.688357 -4.215952 -49.240753 -0.000003 0.000003 0.000004 -0.000002 -0.000001 0.000002 -15.252144 30.084835 -69.930516 -0.435371 -5.276141 -20.890770 0.000004 0.000006 0.000009 -0.000002 0.000002 0.000002 -0.163815 21.130297 17.549444 -55.629459 22.613172 59.652591 -13.025238 13.156492 3.078027 -10.353617 5.839231 9.617189 -2.320012 10.552228 44.468971 -2.591630 2.915519 74.285247 0.000004 0.000004 0.000005 -0.000001 -0.000002 -0.000003 23.380817 13.538064 5.592171 2.321137 -6.714512 -2.170923 0.000004 -0.000001 0.000007 0.000002 -0.000001 0.000002 2.187526 5.608955 37.424147 1.433796 -2.439440 69.793031 -0.000007 0.000003 -0.000004 0.000002 -0.000001 -0.000003 -3.428671 13.092796 55.668285 -2.589571 5.513053 54.530287 -0.000006 -0.000002 0.000002 0.000000 -0.000000 -0.000002 -3.360211 14.852904 54.810591 -1.148007 7.534072 27.882109 -0.000003 -0.000000 0.000001 -0.000001 0.000002 0.000000 -79.931286 -1.060456 8.014906 107.159248 -1.387207 -3.036326 2.543829 -1.037028 0.864180 -18.904167 -0.169978 0.615732 0.000001 -0.000000 0.000000 -75.904767 0.710390 -14.222570 101.514650 1.653224 3.018094 -5.383159 3.423830 -1.243911 -1.755476 -0.184396 0.434605 -0.000000 -0.000001 0.000000 
